<svg width="32" height="32" viewBox="0 0 32 32" fill="none" xmlns="http://www.w3.org/2000/svg">
<rect width="32" height="32" fill="#282C33"/>
<path d="M2.616 20V11.684H4.584V18.446H8.19L7.986 20H2.616ZM15.6253 15.836C15.6253 16.716 15.4993 17.484 15.2473 18.14C14.9953 18.792 14.6213 19.3 14.1253 19.664C13.6333 20.024 13.0233 20.204 12.2953 20.204C11.5713 20.204 10.9613 20.028 10.4653 19.676C9.96931 19.32 9.59531 18.816 9.34331 18.164C9.09131 17.512 8.96531 16.736 8.96531 15.836C8.96531 14.956 9.09131 14.19 9.34331 13.538C9.59531 12.886 9.96931 12.38 10.4653 12.02C10.9613 11.656 11.5713 11.474 12.2953 11.474C13.0233 11.474 13.6333 11.65 14.1253 12.002C14.6213 12.354 14.9953 12.856 15.2473 13.508C15.4993 14.16 15.6253 14.936 15.6253 15.836ZM13.6093 15.836C13.6093 14.812 13.5073 14.068 13.3033 13.604C13.0993 13.14 12.7633 12.908 12.2953 12.908C11.8273 12.908 11.4913 13.142 11.2873 13.61C11.0833 14.074 10.9813 14.816 10.9813 15.836C10.9813 16.86 11.0853 17.604 11.2933 18.068C11.5013 18.532 11.8353 18.764 12.2953 18.764C12.7753 18.764 13.1133 18.53 13.3093 18.062C13.5093 17.59 13.6093 16.848 13.6093 15.836ZM19.7966 20.204C19.0086 20.204 18.3446 20.038 17.8046 19.706C17.2646 19.37 16.8546 18.878 16.5746 18.23C16.2986 17.578 16.1606 16.776 16.1606 15.824C16.1606 15.116 16.2586 14.492 16.4546 13.952C16.6546 13.408 16.9306 12.954 17.2826 12.59C17.6346 12.222 18.0446 11.944 18.5126 11.756C18.9806 11.568 19.4846 11.474 20.0246 11.474C20.6326 11.474 21.1446 11.568 21.5606 11.756C21.9766 11.944 22.3466 12.192 22.6706 12.5L21.6386 13.568C21.3866 13.344 21.1446 13.178 20.9126 13.07C20.6806 12.962 20.4166 12.908 20.1206 12.908C19.8406 12.908 19.5826 12.964 19.3466 13.076C19.1146 13.184 18.9106 13.356 18.7346 13.592C18.5626 13.824 18.4286 14.126 18.3326 14.498C18.2366 14.866 18.1886 15.312 18.1886 15.836C18.1886 16.56 18.2466 17.136 18.3626 17.564C18.4826 17.992 18.6626 18.3 18.9026 18.488C19.1426 18.672 19.4466 18.764 19.8146 18.764C20.0106 18.764 20.1946 18.742 20.3666 18.698C20.5386 18.65 20.6986 18.588 20.8466 18.512V16.61H19.8026L19.6106 15.23H22.7066V19.364C22.2906 19.62 21.8426 19.824 21.3626 19.976C20.8866 20.128 20.3646 20.204 19.7966 20.204ZM30.0159 15.836C30.0159 16.716 29.8899 17.484 29.6379 18.14C29.3859 18.792 29.0119 19.3 28.5159 19.664C28.0239 20.024 27.4139 20.204 26.6859 20.204C25.9619 20.204 25.3519 20.028 24.8559 19.676C24.3599 19.32 23.9859 18.816 23.7339 18.164C23.4819 17.512 23.3559 16.736 23.3559 15.836C23.3559 14.956 23.4819 14.19 23.7339 13.538C23.9859 12.886 24.3599 12.38 24.8559 12.02C25.3519 11.656 25.9619 11.474 26.6859 11.474C27.4139 11.474 28.0239 11.65 28.5159 12.002C29.0119 12.354 29.3859 12.856 29.6379 13.508C29.8899 14.16 30.0159 14.936 30.0159 15.836ZM27.9999 15.836C27.9999 14.812 27.8979 14.068 27.6939 13.604C27.4899 13.14 27.1539 12.908 26.6859 12.908C26.2179 12.908 25.8819 13.142 25.6779 13.61C25.4739 14.074 25.3719 14.816 25.3719 15.836C25.3719 16.86 25.4759 17.604 25.6839 18.068C25.8919 18.532 26.2259 18.764 26.6859 18.764C27.1659 18.764 27.5039 18.53 27.6999 18.062C27.8999 17.59 27.9999 16.848 27.9999 15.836Z" fill="white"/>
</svg>
